<?xml version="1.0" encoding="UTF-8"?>
<svg id="Capa_1" data-name="Capa 1" xmlns="http://www.w3.org/2000/svg" viewBox="0 0 170.08 170.08">
  <defs>
    <style>
      .cls-1 {
        fill: #1b80e4;
      }

      .cls-2 {
        fill: #fcfcfc;
      }
    </style>
  </defs>
  <g id="_83-facebook" data-name="83-facebook">
    <g>
      <path class="cls-1" d="m148.82,0H21.26C9.54,0,0,9.54,0,21.26v127.56c0,11.72,9.54,21.26,21.26,21.26h127.56c11.73,0,21.26-9.54,21.26-21.26V21.26c0-11.72-9.54-21.26-21.26-21.26h0Z"/>
      <path class="cls-2" d="m143.5,85.04h-26.58v-21.26c0-5.87,4.76-5.31,10.63-5.31h10.63v-26.58h-21.26c-17.61,0-31.89,14.28-31.89,31.89v21.26h-21.26v26.57h21.26v58.46h31.89v-58.46h15.94l10.63-26.57Z"/>
    </g>
  </g>
</svg>