<?xml version="1.0" encoding="UTF-8"?>
<svg id="Capa_1" data-name="Capa 1" xmlns="http://www.w3.org/2000/svg" viewBox="0 0 170.08 170.08">
  <defs>
    <style>
      .cls-1 {
        fill: #fff;
      }

      .cls-2 {
        fill: #010101;
        isolation: isolate;
        opacity: .2;
      }

      .cls-3 {
        fill: #1a65af;
      }

      .cls-4 {
        fill: #2974ba;
      }

      .cls-5 {
        fill: #2973b9;
      }

      .cls-6 {
        fill: #6bc9ef;
      }

      .cls-7 {
        fill: #2f7dc1;
      }

      .cls-8 {
        fill: #2c8ccc;
      }

      .cls-9 {
        fill: #3aa5dd;
      }

      .cls-10 {
        fill: #253063;
      }
    </style>
  </defs>
  <g>
    <path class="cls-3" d="m159.82,25.55H45.85V5.88c0-3.3,2.39-5.88,5.3-5.88h103.24c3.05,0,5.43,2.58,5.43,5.88,0,0,0,19.66,0,19.66Z"/>
    <rect class="cls-5" x="45.85" y="25.55" width="38.03" height="38.18"/>
    <rect class="cls-9" x="83.89" y="25.55" width="38.03" height="38.18"/>
    <rect class="cls-6" x="121.92" y="25.55" width="38.03" height="38.18"/>
    <rect class="cls-7" x="45.85" y="63.73" width="38.03" height="38.18"/>
    <rect class="cls-4" x="83.89" y="63.73" width="38.03" height="38.18"/>
    <rect class="cls-9" x="121.92" y="63.73" width="38.03" height="38.18"/>
    <rect class="cls-3" x="83.89" y="101.76" width="38.03" height="38.18"/>
    <rect class="cls-7" x="121.92" y="101.76" width="38.03" height="38.18"/>
  </g>
  <path class="cls-10" d="m168.7,92l-8.75,5.6v-16.07l8.61,5.17c1.99,1,1.99,4.02.13,5.31Z"/>
  <path class="cls-8" d="m168.7,92l-.8.57h0l-.93.57-7.02,4.45v-.14l-117.15,72.62h118.08c5.04,0,9.01-4.45,9.01-9.76l.13-70.9c.13.86-.4,2.01-1.33,2.58Z"/>
  <path class="cls-9" d="m162.21,170.08H44c-5.04,0-9.01-4.45-9.01-9.76v-69.18l127.22,78.94Z"/>
  <path class="cls-7" d="m78.72,131.33H8.48c-4.64,0-8.48-4.16-8.48-9.19V47.22c0-5.02,3.84-9.19,8.48-9.19h70.24c4.64,0,8.48,4.16,8.48,9.19v74.92c0,5.02-3.71,9.19-8.48,9.19Z"/>
  <path class="cls-1" d="m43.6,111.81c-13.65,0-22.26-11.2-22.26-26.12,0-15.79,9.41-26.98,22.93-26.98s22.26,11.34,22.26,25.98c.13,17.37-9.67,27.13-22.93,27.13h0Zm.53-7.46c8.48,0,13.25-8.47,13.25-19.23,0-9.76-4.51-18.8-13.25-18.8s-13.38,8.9-13.38,19.23,4.77,18.8,13.38,18.8h0Z"/>
  <path class="cls-2" d="m87.33,46.36v75.78c0,5.02-3.84,9.19-8.48,9.19h-43.87v8.18h50.89c4.64,0,8.48-4.16,8.48-9.19V55.4c0-4.59-3.05-8.47-7.02-9.04Z"/>
</svg>