<?xml version="1.0" encoding="UTF-8"?>
<svg id="Capa_1" data-name="Capa 1" xmlns="http://www.w3.org/2000/svg" xmlns:xlink="http://www.w3.org/1999/xlink" viewBox="0 0 170.08 170.08">
  <defs>
    <style>
      .cls-1 {
        fill: #fff;
      }

      .cls-2 {
        fill: url(#Degradado_sin_nombre);
      }
    </style>
    <linearGradient id="Degradado_sin_nombre" data-name="Degradado sin nombre" x1="85.04" y1="160.83" x2="85.04" y2="-.77" gradientTransform="translate(0 171.46) scale(1 -1)" gradientUnits="userSpaceOnUse">
      <stop offset="0" stop-color="#1df47c"/>
      <stop offset=".31" stop-color="#12df63"/>
      <stop offset=".75" stop-color="#05c443"/>
      <stop offset="1" stop-color="#00ba37"/>
    </linearGradient>
  </defs>
  <g id="_23-whatsapp" data-name=" 23-whatsapp">
    <rect class="cls-2" width="170.08" height="170.08" rx="29.76" ry="29.76"/>
    <path class="cls-1" d="m72.87,56.82l5.31,14.43c.26.66.16,1.4-.27,1.97-1.14,1.65-2.46,3.18-3.93,4.54-.89.7-1.08,1.97-.43,2.9,3.27,4.38,11.75,15.01,22.77,18.81.87.29,1.83-.02,2.37-.77l4.41-5.87c.62-.82,1.74-1.08,2.66-.61l13.82,6.91c1,.47,1.46,1.63,1.06,2.66-1.51,4.31-6.27,14.8-16.45,13.1-13.31-2.04-25.42-8.87-34.04-19.21-8.34-10.42-24.82-37.2.5-40.23.96-.1,1.87.47,2.21,1.38Z"/>
    <path class="cls-1" d="m89.29,145.63c-11.12.02-22.05-2.85-31.73-8.32l-31.89,8.19,11.72-26.34c-7.08-9.96-10.87-21.9-10.82-34.12,0-33.4,28.14-60.59,62.72-60.59s62.72,27.19,62.72,60.59-28.14,60.59-62.72,60.59Zm-30.06-19.75l1.94,1.2c8.45,5.22,18.19,7.98,28.12,7.97,28.73,0,52.09-22.4,52.09-49.96s-23.36-50.01-52.09-50.01-52.09,22.4-52.09,49.96c.01,10.96,3.76,21.59,10.63,30.14l1.99,2.52-9.59,16.26,19-8.08Z"/>
  </g>
</svg>